PathFileType	4	(X/Y/Z)	C:/Users/opensim2020/Desktop/walking_exp_matlab/subject01_walking12_straight_01.trc																																																																																																																																		
DataRate	CameraRate	NumFrames	NumMarkers	Units	OrigDataRate	OrigDataStartFrame	OrigNumFrames																																																																																																																														
100	100	7	44	mm	100	691	193																																																																																																																														
Frame#	Time	LFHD			RFHD			LBHD			RBHD			C7			T10			CLAV			STRN			RBAK			LSHO			LUPA			LELB			LFRM			LWRA			LWRB			LFIN			RSHO			RUPA			RELB			RFRM			RWRA			RWRB			RFIN			LASI			RASI			LPSI			RPSI			LTHI			LKNE			LTIB			LANK			LHEE			LTOE			RTHI			RKNE			RTIB			RANK			RHEE			RTOE			*39			*40			*41			*42			*43		
		X1	Y1	Z1	X2	Y2	Z2	X3	Y3	Z3	X4	Y4	Z4	X5	Y5	Z5	X6	Y6	Z6	X7	Y7	Z7	X8	Y8	Z8	X9	Y9	Z9	X10	Y10	Z10	X11	Y11	Z11	X12	Y12	Z12	X13	Y13	Z13	X14	Y14	Z14	X15	Y15	Z15	X16	Y16	Z16	X17	Y17	Z17	X18	Y18	Z18	X19	Y19	Z19	X20	Y20	Z20	X21	Y21	Z21	X22	Y22	Z22	X23	Y23	Z23	X24	Y24	Z24	X25	Y25	Z25	X26	Y26	Z26	X27	Y27	Z27	X28	Y28	Z28	X29	Y29	Z29	X30	Y30	Z30	X31	Y31	Z31	X32	Y32	Z32	X33	Y33	Z33	X34	Y34	Z34	X35	Y35	Z35	X36	Y36	Z36	X37	Y37	Z37	X38	Y38	Z38	X39	Y39	Z39	X40	Y40	Z40	X41	Y41	Z41	X42	Y42	Z42	X43	Y43	Z43	X44	Y44	Z44
																																																																																																																																					
73	0.72	-335.53964	1664.89111	-1141.59192	-330.40744	1675.19592	-1028.71948	-444.68192	1604.46118	-1139.42395	-441.62665	1613.33289	-1019.1687	-468.13589	1423.3092	-1088.92957	-506.68347	1132.13013	-1057.51147	-325.5943	1354.37219	-1080.02747	-283.02606	1199.28882	-1072.71375	-526.59625	1235.61536	-996.3205	-383.53641	1373.09802	-1243.7699	-424.19229	1183.54785	-1313.06067	-449.0162	1037.63306	-1296.74609	-431.54367	926.28729	-1318.51501	-371.23206	799.62457	-1305.15454	-429.61716	803.82532	-1320.4198	-398.7117	724.60742	-1329.86328	-392.5462	1392.19165	-932.01416	-449.36194	1202.88623	-814.69214	-441.78824	1077.07751	-796.21759	-384.35367	967.64984	-767.24268	-281.64136	873.82098	-795.93427	-319.37524	865.08173	-752.00146	-260.89102	804.7196	-752.85272	-327.48752	928.32825	-1152.27588	-344.06143	920.07941	-936.18115	-518.17572	940.45795	-1114.84998	-526.20258	940.46143	-970.33527	-302.32178	608.21643	-1215.77795	-284.79422	475.85098	-1197.51892	-320.91983	288.50302	-1212.75598	-333.17981	69.44714	-1164.91296	-378.98114	38.57562	-1114.54663	-184.21942	35.0179	-1162.21069	-418.44293	584.76013	-873.59283	-432.81351	426.11679	-886.67883	-582.84625	331.05746	-892.90027	-731.63989	190.9823	-942.6582	-778.35767	205.40802	-1001.80981	-699.64185	49.16663	-941.82098	-345.21893	1706.06921	-1052.53271	1973.11304	1023.69659	-3101.91748	2012.60754	1022.06934	-3140.62427	NaN	NaN	NaN	NaN	NaN	NaN
74	0.73	-325.55225	1665.91333	-1143.16321	-320.58685	1676.10742	-1030.13965	-434.49234	1605.19714	-1141.3042	-432.01718	1614.12305	-1021.17267	-457.93945	1424.19141	-1090.59595	-496.47495	1133.11658	-1059.70227	-315.3103	1355.36694	-1081.34131	-272.70981	1200.27747	-1074.12793	-516.2077	1236.26831	-998.37097	-372.74423	1374.10498	-1245.25427	-411.79593	1184.5647	-1315.28528	-435.58505	1038.17395	-1299.42871	-416.57089	927.13092	-1321.37317	-354.83063	800.97858	-1307.60339	-412.96198	804.71497	-1323.54102	-380.93497	725.92566	-1332.91455	-382.38538	1393.17395	-933.45715	-440.20334	1203.97949	-816.29639	-434.25204	1077.85767	-798.97723	-379.01859	967.422	-769.6449	-277.78662	871.7038	-797.77081	-315.92038	863.5813	-754.26721	-258.80035	801.92914	-754.93066	-317.53925	928.96704	-1154.19678	-333.72256	921.06964	-938.0246	-508.30737	941.27887	-1116.31128	-516.26611	940.59277	-971.67035	-295.41852	608.3476	-1217.22864	-279.8186	475.24481	-1198.9342	-318.88431	288.33615	-1213.58203	-333.13275	69.38101	-1165.03064	-378.94409	38.46312	-1114.44592	-183.96794	34.62329	-1162.48657	-400.64954	584.33191	-874.80688	-411.69205	426.16946	-887.9115	-563.04028	334.44833	-893.95691	-714.47162	198.66344	-944.85431	-760.13934	213.87515	-1004.73914	-686.72949	55.57211	-941.52606	-335.63052	1706.78894	-1054.65283	1973.22937	1023.63324	-3101.95654	2012.55957	1021.99133	-3140.66821	NaN	NaN	NaN	NaN	NaN	NaN
75	0.74	-315.5787	1666.90039	-1144.67566	-310.96381	1677.22717	-1031.64099	-424.37549	1605.96301	-1142.99988	-422.20441	1614.99109	-1022.8299	-447.75305	1425.34326	-1092.11475	-486.37735	1134.15173	-1061.73694	-305.0141	1356.39014	-1082.60669	-262.51212	1201.19189	-1075.33533	-505.89548	1237.07996	-1000.40527	-361.9928	1375.09668	-1246.61377	-399.35449	1185.54675	-1317.36731	-422.0752	1038.74512	-1302.13464	-401.38431	928.08374	-1324.36218	-337.93976	802.79663	-1310.36646	-396.05502	805.61005	-1326.71045	-362.80344	727.38477	-1336.01782	-372.33658	1393.96899	-934.78302	-431.0433	1204.92847	-817.83392	-426.49094	1078.47192	-801.60724	-373.71008	967.00964	-772.05688	-274.19745	869.41235	-799.81055	-312.64279	861.92975	-756.35486	-256.87311	798.96008	-757.01373	-307.87836	929.56323	-1155.85999	-323.34546	922.13568	-939.61444	-498.90292	941.92389	-1117.68323	-506.28751	940.28455	-972.86993	-288.93369	608.22803	-1218.72058	-275.2807	474.43652	-1200.30005	-316.62442	287.91824	-1214.48389	-332.92282	69.30641	-1165.05371	-378.81024	38.51171	-1114.37598	-183.75061	34.36393	-1162.67603	-383.19113	584.8938	-876.07953	-390.66971	426.68582	-889.2359	-543.02893	338.07953	-895.40009	-696.57605	204.9743	-947.81738	-741.52234	220.47249	-1008.26434	-671.44885	62.19595	-941.26178	-326.06134	1707.86755	-1056.15393	1973.06396	1023.5979	-3102.01147	2012.49768	1021.98511	-3140.82324	NaN	NaN	NaN	NaN	NaN	NaN
76	0.75	-305.78696	1667.81372	-1145.81262	-301.28543	1678.33252	-1032.9176	-414.26108	1606.71936	-1144.49609	-412.44284	1615.79565	-1024.39368	-437.32175	1426.45935	-1093.4939	-476.39493	1135.32642	-1063.55896	-294.78781	1357.3678	-1083.63062	-252.43954	1202.07739	-1076.52087	-495.80756	1237.98401	-1002.39197	-351.24286	1376.14087	-1247.74939	-386.88504	1186.52368	-1319.32007	-408.41983	1039.47314	-1304.73999	-386.05734	929.05933	-1327.19666	-320.98898	804.51331	-1312.96155	-378.87827	806.72632	-1329.98145	-344.27502	729.04675	-1339.1814	-362.15738	1394.75	-936.06042	-421.87503	1205.72498	-819.40515	-418.50772	1079.00842	-804.20697	-368.41049	966.58734	-774.39758	-270.71014	866.93677	-801.55377	-309.56192	860.18146	-758.39313	-255.28358	795.88177	-759.10516	-298.53922	930.11615	-1157.33679	-313.23645	923.10364	-941.21997	-489.06335	942.43549	-1118.70605	-496.41913	939.76434	-974.0542	-283.62039	607.21191	-1219.26343	-271.13361	473.49164	-1201.50171	-313.9025	287.39117	-1215.06335	-332.65002	69.28142	-1165.0061	-378.72452	38.73198	-1114.37292	-183.35754	34.32998	-1162.9021	-365.71591	585.91846	-877.26025	-370.03302	428.10532	-890.64667	-522.84497	341.68466	-897.04492	-677.81329	210.83907	-950.42291	-722.49603	226	-1011.84631	-653.82971	68.18682	-940.90948	-316.46964	1709.23242	-1057.34167	1973.18298	1023.43689	-3101.82471	2012.54553	1022.06439	-3140.67822	NaN	NaN	NaN	NaN	NaN	NaN
77	0.76	-295.74713	1668.9884	-1147.047	-291.68918	1679.46985	-1034.00574	-404.22598	1607.47253	-1145.87927	-402.66702	1616.66553	-1025.68152	-426.69473	1427.43054	-1094.65002	-466.52814	1136.47278	-1065.30701	-284.59906	1358.31091	-1084.67529	-242.42233	1202.88025	-1077.47571	-485.91461	1239.0376	-1004.22919	-340.52185	1377.19116	-1248.77722	-374.40161	1187.5686	-1321.13245	-394.82794	1040.18689	-1307.36316	-370.62009	930.09924	-1330.05078	-303.64001	806.64337	-1315.73999	-361.37152	807.96033	-1333.16394	-325.44382	730.92957	-1342.40515	-352.25244	1395.5354	-937.00488	-412.69125	1206.37817	-820.99097	-410.4418	1079.56116	-806.70978	-363.41309	966.02295	-776.70038	-267.38885	864.37714	-803.44989	-306.76611	858.4256	-760.48907	-253.90843	792.75427	-761.26709	-289.1618	930.50861	-1158.93396	-303.06934	924.29877	-942.52979	-479.5632	942.89032	-1119.70972	-487.05014	939.61456	-975.09222	-277.49503	606.67725	-1221.04614	-267.26422	472.64883	-1202.82959	-310.94638	286.81573	-1215.43201	-332.37759	69.27867	-1164.89514	-378.59003	39.00533	-1114.26843	-182.90167	34.06572	-1163.02856	-349.39111	587.53918	-878.39783	-348.81583	430.1322	-891.92474	-501.75238	344.56775	-899.28632	-658.09467	215.92741	-953.19531	-702.69623	230.09297	-1015.13434	-634.47528	73.29125	-940.93317	-306.75558	1710.14453	-1058.46948	1973.21045	1023.50348	-3102.05249	2012.54724	1022.15411	-3140.76709	NaN	NaN	NaN	NaN	NaN	NaN
78	0.77	-286.02432	1669.8761	-1147.93054	-282.02563	1680.58313	-1034.90674	-394.2486	1608.19958	-1147.01721	-392.8624	1617.46912	-1026.77673	-416.42041	1428.45459	-1095.78064	-456.72455	1137.56848	-1066.97168	-274.44412	1359.18469	-1085.34131	-232.4942	1203.61877	-1078.44348	-475.98471	1240.03455	-1006.00226	-329.83142	1378.23291	-1249.70471	-361.96964	1188.67554	-1322.77979	-381.19116	1040.901	-1309.92456	-355.01291	931.32043	-1332.8197	-286.07401	809.12878	-1318.63586	-343.69037	809.35223	-1336.27344	-306.32483	733.15161	-1345.72583	-342.34033	1396.24231	-937.93616	-403.60632	1206.93152	-822.66266	-402.1752	1080.03699	-809.16248	-357.94437	965.62683	-778.91528	-264.2616	861.77625	-805.25201	-304.28442	856.71918	-762.57703	-252.87714	789.5705	-763.16711	-279.67914	931.13885	-1160.53149	-293.02924	925.55389	-943.86523	-470.15411	943.35455	-1120.49182	-477.71722	939.95648	-975.20721	-272.11108	605.9762	-1221.9657	-263.35468	471.98544	-1203.59558	-308.10861	286.4209	-1215.60645	-332.03088	69.35661	-1164.81885	-378.43622	39.49571	-1114.25891	-182.77667	34.09058	-1163.13586	-333.23672	589.32654	-879.71606	-327.81204	432.55978	-893.35559	-480.75818	347.55017	-901.5213	-637.64594	219.71614	-955.93408	-682.48547	233.16145	-1018.26288	-613.633	77.75774	-941.60272	-297.22733	1711.07739	-1059.71021	1973.1886	1023.47479	-3101.87354	2012.44641	1022.03912	-3140.73071	NaN	NaN	NaN	NaN	NaN	NaN
79	0.78	-276.17032	1670.86072	-1148.63293	-272.39368	1681.552	-1035.75403	-384.16962	1608.89478	-1147.94092	-383.01923	1618.18774	-1027.745	-406.535	1429.60474	-1096.95496	-446.98291	1138.66309	-1068.50073	-264.22388	1360.09656	-1086.44763	-222.57938	1204.30005	-1079.30603	-466.19464	1240.9646	-1007.72266	-319.12079	1379.34631	-1250.60156	-349.56207	1189.87061	-1324.26685	-367.56815	1041.7157	-1312.44702	-339.29218	932.63165	-1335.52783	-268.31738	811.70715	-1321.3717	-325.78876	810.93811	-1339.33386	-286.90887	735.56354	-1349.0332	-332.53659	1396.87744	-938.84015	-394.50186	1207.40942	-824.36823	-393.81601	1080.53735	-811.52197	-352.28763	965.36877	-781.21716	-261.14822	859.1413	-806.98102	-301.29388	855.00409	-764.52509	-252.14418	786.42859	-765.70947	-270.37778	931.59747	-1162.11829	-283.0657	926.90369	-945.20544	-460.76895	943.81653	-1121.2262	-466.85321	939.31567	-976.54944	-266.9689	605.12616	-1222.5929	-259.38821	471.37799	-1204.19531	-305.85953	286.24725	-1215.76379	-331.79108	69.38763	-1164.69019	-378.37958	39.85289	-1114.18848	-182.64937	33.92123	-1163.14038	-316.61795	591.2926	-880.95471	-306.94809	435.15387	-894.84088	-459.80496	349.83951	-903.72229	-616.59119	222.6425	-958.66962	-661.84192	235.15091	-1021.21106	-591.13678	81.19059	-942.87842	-287.6387	1712.08984	-1060.47937	1973.12317	1023.53717	-3101.87158	2012.49182	1022.11005	-3140.78369	NaN	NaN	NaN	NaN	NaN	NaN
